# xmcd
#
# Track frame offsets:
#	150
#	22853
#	49846
#	75109
#	101796
#	133375
#	166785
#	203481
#	232332
#
# Disc length: 3732 seconds
#
# Revision: 1
# Processed by: cddbd v1.5.1PL0 Copyright (c) Steve Scherf et al.
# Submitted via: CDmax 2.0
#
DISCID=6b0e9209
DTITLE=Tri Continental - Drifting
DYEAR=2004
DGENRE=Blues
TTITLE0=Blue Bird
TTITLE1=Grinnin' In Your Face
TTITLE2=Salama
TTITLE3=T-Bone Shuffle
TTITLE4=One Love
TTITLE5=Gumbo No. 1
TTITLE6=Big Boss Man
TTITLE7=The Gift
TTITLE8=Room Full Of Mirrors
EXTD=
EXTT0=
EXTT1=
EXTT2=
EXTT3=
EXTT4=
EXTT5=
EXTT6=
EXTT7=
EXTT8=
PLAYORDER=
